<?xml version="1.0" encoding="utf-8"?>
<!-- Generator: Adobe Illustrator 15.1.0, SVG Export Plug-In . SVG Version: 6.00 Build 0)  -->
<!DOCTYPE svg PUBLIC "-//W3C//DTD SVG 1.1//EN" "http://www.w3.org/Graphics/SVG/1.1/DTD/svg11.dtd">
<svg version="1.1" id="Layer_1" xmlns="http://www.w3.org/2000/svg" xmlns:xlink="http://www.w3.org/1999/xlink" x="0px" y="0px"
	 width="730px" height="490px" viewBox="2.5 1.5 730 490" enable-background="new 2.5 1.5 730 490" xml:space="preserve">
<path fill="#20B2AA" d="M661.414,12H73.586C62.261,12,53.08,22.448,53.08,35.335v383.089c0,12.887,9.181,23.336,20.506,23.336
	h587.828c11.325,0,20.506-10.449,20.506-23.336V35.335C681.92,22.448,672.739,12,661.414,12z M650.32,410.16H84.68V43.6h565.64
	V410.16z"/>
<path fill="#20B2AA" d="M707.2,449.66H27.8c-8.727,0-15.8,7.074-15.8,15.8s7.073,15.8,15.8,15.8h679.4c8.726,0,15.8-7.074,15.8-15.8
	S715.926,449.66,707.2,449.66z M429.91,470.2H305.09c-2.618,0-4.74-2.122-4.74-4.74s2.122-4.74,4.74-4.74h124.82
	c2.618,0,4.74,2.122,4.74,4.74S432.528,470.2,429.91,470.2z"/>
</svg>
